# Blender 5.0.0
# www.blender.org
mtllib boardC.mtl
o Cube
v -5.998011 -1.212000 5.999997
v -5.998011 0.012000 5.999997
v -5.998011 -1.212000 -5.999997
v -5.998011 0.012000 -5.999997
v 5.998011 -1.212000 5.999997
v 5.998011 0.012000 5.999997
v 5.998011 -1.212000 -5.999997
v 5.998011 0.012000 -5.999997
v -5.998011 0.012000 4.666665
v -5.998011 0.012000 3.333332
v -5.998011 0.012000 1.999999
v -5.998011 0.012000 0.666666
v -5.998011 0.012000 -0.666667
v -5.998011 0.012000 -1.999999
v -5.998011 0.012000 -3.333332
v -5.998011 0.012000 -4.666665
v -4.665120 0.012000 -5.999997
v -3.332229 0.012000 -5.999997
v -1.999337 0.012000 -5.999997
v -0.666446 0.012000 -5.999997
v 0.666446 0.012000 -5.999997
v 1.999337 0.012000 -5.999997
v 3.332229 0.012000 -5.999997
v 4.665120 0.012000 -5.999997
v 5.998011 0.012000 -4.666665
v 5.998011 0.012000 -3.333332
v 5.998011 0.012000 -1.999999
v 5.998011 0.012000 -0.666666
v 5.998011 0.012000 0.666667
v 5.998011 0.012000 1.999999
v 5.998011 0.012000 3.333332
v 5.998011 0.012000 4.666665
v 4.665120 0.012000 5.999997
v 3.332229 0.012000 5.999997
v 1.999337 0.012000 5.999997
v 0.666446 0.012000 5.999997
v -0.666446 0.012000 5.999997
v -1.999337 0.012000 5.999997
v -3.332229 0.012000 5.999997
v -4.665120 0.012000 5.999997
v 4.665120 0.012000 -4.666665
v 4.665120 0.012000 -3.333332
v 4.665120 0.012000 -1.999999
v 4.665120 0.012000 -0.666666
v 4.665120 0.012000 0.666667
v 4.665120 0.012000 1.999999
v 4.665120 0.012000 3.333332
v 4.665120 0.012000 4.666665
v 3.332229 0.012000 -4.666665
v 3.332229 0.012000 -3.333332
v 3.332229 0.012000 -1.999999
v 3.332229 0.012000 -0.666666
v 3.332229 0.012000 0.666667
v 3.332229 0.012000 1.999999
v 3.332229 0.012000 3.333332
v 3.332229 0.012000 4.666665
v 1.999337 0.012000 -4.666665
v 1.999337 0.012000 -3.333332
v 1.999337 0.012000 -1.999999
v 1.999337 0.012000 -0.666666
v 1.999337 0.012000 0.666667
v 1.999337 0.012000 1.999999
v 1.999337 0.012000 3.333332
v 1.999337 0.012000 4.666665
v 0.666446 0.012000 -4.666665
v 0.666446 0.012000 -3.333332
v 0.666446 0.012000 -1.999999
v 0.666446 0.012000 -0.666666
v 0.666446 0.012000 0.666667
v 0.666446 0.012000 1.999999
v 0.666446 0.012000 3.333332
v 0.666446 0.012000 4.666665
v -0.666446 0.012000 -4.666665
v -0.666446 0.012000 -3.333332
v -0.666446 0.012000 -1.999999
v -0.666446 0.012000 -0.666666
v -0.666446 0.012000 0.666667
v -0.666446 0.012000 1.999999
v -0.666446 0.012000 3.333332
v -0.666446 0.012000 4.666665
v -1.999337 0.012000 -4.666665
v -1.999337 0.012000 -3.333332
v -1.999337 0.012000 -1.999999
v -1.999337 0.012000 -0.666666
v -1.999337 0.012000 0.666667
v -1.999337 0.012000 1.999999
v -1.999337 0.012000 3.333332
v -1.999337 0.012000 4.666665
v -3.332229 0.012000 -4.666665
v -3.332229 0.012000 -3.333332
v -3.332229 0.012000 -1.999999
v -3.332229 0.012000 -0.666666
v -3.332229 0.012000 0.666667
v -3.332229 0.012000 1.999999
v -3.332229 0.012000 3.333332
v -3.332229 0.012000 4.666665
v -4.665120 0.012000 -4.666665
v -4.665120 0.012000 -3.333332
v -4.665120 0.012000 -1.999999
v -4.665120 0.012000 -0.666666
v -4.665120 0.012000 0.666667
v -4.665120 0.012000 1.999999
v -4.665120 0.012000 3.333332
v -4.665120 0.012000 4.666665
vn -1.0000 -0.0000 -0.0000
vn -0.0000 -0.0000 -1.0000
vn 1.0000 -0.0000 -0.0000
vn -0.0000 -0.0000 1.0000
vn -0.0000 -1.0000 -0.0000
vn -0.0000 1.0000 -0.0000
vt 0.375000 0.000000
vt 0.625000 0.000000
vt 0.625000 0.027778
vt 0.625000 0.055556
vt 0.625000 0.083333
vt 0.625000 0.111111
vt 0.625000 0.138889
vt 0.625000 0.166667
vt 0.625000 0.194444
vt 0.625000 0.222222
vt 0.625000 0.250000
vt 0.375000 0.250000
vt 0.625000 0.277778
vt 0.625000 0.305556
vt 0.625000 0.333333
vt 0.625000 0.361111
vt 0.625000 0.388889
vt 0.625000 0.416667
vt 0.625000 0.444444
vt 0.625000 0.472222
vt 0.625000 0.500000
vt 0.375000 0.500000
vt 0.625000 0.527778
vt 0.625000 0.555556
vt 0.625000 0.583333
vt 0.625000 0.611111
vt 0.625000 0.638889
vt 0.625000 0.666667
vt 0.625000 0.694444
vt 0.625000 0.722222
vt 0.625000 0.750000
vt 0.375000 0.750000
vt 0.625000 0.777778
vt 0.625000 0.805556
vt 0.625000 0.833333
vt 0.625000 0.861111
vt 0.625000 0.888889
vt 0.625000 0.916667
vt 0.625000 0.944444
vt 0.625000 0.972222
vt 0.625000 1.000000
vt 0.375000 1.000000
vt 0.125000 0.500000
vt 0.125000 0.750000
vt 0.847222 0.722222
vt 0.875000 0.722222
vt 0.875000 0.750000
vt 0.847222 0.750000
vt 0.652778 0.722222
vt 0.652778 0.750000
vt 0.680556 0.722222
vt 0.680556 0.750000
vt 0.708333 0.722222
vt 0.708333 0.750000
vt 0.736111 0.722222
vt 0.736111 0.750000
vt 0.763889 0.722222
vt 0.763889 0.750000
vt 0.791667 0.722222
vt 0.791667 0.750000
vt 0.819444 0.722222
vt 0.819444 0.750000
vt 0.652778 0.500000
vt 0.652778 0.527778
vt 0.652778 0.555556
vt 0.652778 0.583333
vt 0.652778 0.611111
vt 0.652778 0.638889
vt 0.652778 0.666667
vt 0.652778 0.694444
vt 0.680556 0.500000
vt 0.680556 0.527778
vt 0.680556 0.555556
vt 0.680556 0.583333
vt 0.680556 0.611111
vt 0.680556 0.638889
vt 0.680556 0.666667
vt 0.680556 0.694444
vt 0.708333 0.500000
vt 0.708333 0.527778
vt 0.708333 0.555556
vt 0.708333 0.583333
vt 0.708333 0.611111
vt 0.708333 0.638889
vt 0.708333 0.666667
vt 0.708333 0.694444
vt 0.736111 0.500000
vt 0.736111 0.527778
vt 0.736111 0.555556
vt 0.736111 0.583333
vt 0.736111 0.611111
vt 0.736111 0.638889
vt 0.736111 0.666667
vt 0.736111 0.694444
vt 0.763889 0.500000
vt 0.763889 0.527778
vt 0.763889 0.555556
vt 0.763889 0.583333
vt 0.763889 0.611111
vt 0.763889 0.638889
vt 0.763889 0.666667
vt 0.763889 0.694444
vt 0.791667 0.500000
vt 0.791667 0.527778
vt 0.791667 0.555556
vt 0.791667 0.583333
vt 0.791667 0.611111
vt 0.791667 0.638889
vt 0.791667 0.666667
vt 0.791667 0.694444
vt 0.819444 0.500000
vt 0.819444 0.527778
vt 0.819444 0.555556
vt 0.819444 0.583333
vt 0.819444 0.611111
vt 0.819445 0.638889
vt 0.819444 0.666667
vt 0.819444 0.694444
vt 0.847222 0.500000
vt 0.847222 0.527778
vt 0.847222 0.555556
vt 0.847222 0.583333
vt 0.847222 0.611111
vt 0.847222 0.638889
vt 0.847222 0.666667
vt 0.847222 0.694444
vt 0.875000 0.500000
vt 0.875000 0.527778
vt 0.875000 0.555556
vt 0.875000 0.583333
vt 0.875000 0.611111
vt 0.875000 0.638889
vt 0.875000 0.666667
vt 0.875000 0.694444
s 0
usemtl Material.001
f 1/1/1 2/2/1 9/3/1 10/4/1 11/5/1 12/6/1 13/7/1 14/8/1 15/9/1 16/10/1 4/11/1 3/12/1
f 3/12/2 4/11/2 17/13/2 18/14/2 19/15/2 20/16/2 21/17/2 22/18/2 23/19/2 24/20/2 8/21/2 7/22/2
f 7/22/3 8/21/3 25/23/3 26/24/3 27/25/3 28/26/3 29/27/3 30/28/3 31/29/3 32/30/3 6/31/3 5/32/3
f 5/32/4 6/31/4 33/33/4 34/34/4 35/35/4 36/36/4 37/37/4 38/38/4 39/39/4 40/40/4 2/41/4 1/42/4
f 3/43/5 7/22/5 5/32/5 1/44/5
f 48/49/6 56/51/6 34/52/6 33/50/6
f 64/53/6 72/55/6 36/56/6 35/54/6
f 80/57/6 88/59/6 38/60/6 37/58/6
f 96/61/6 104/45/6 40/48/6 39/62/6
f 25/23/6 41/64/6 42/65/6 26/24/6
f 27/25/6 43/66/6 44/67/6 28/26/6
f 29/27/6 45/68/6 46/69/6 30/28/6
f 31/29/6 47/70/6 48/49/6 32/30/6
f 24/63/6 23/71/6 49/72/6 41/64/6
f 42/65/6 50/73/6 51/74/6 43/66/6
f 44/67/6 52/75/6 53/76/6 45/68/6
f 46/69/6 54/77/6 55/78/6 47/70/6
f 49/72/6 57/80/6 58/81/6 50/73/6
f 51/74/6 59/82/6 60/83/6 52/75/6
f 53/76/6 61/84/6 62/85/6 54/77/6
f 55/78/6 63/86/6 64/53/6 56/51/6
f 22/79/6 21/87/6 65/88/6 57/80/6
f 58/81/6 66/89/6 67/90/6 59/82/6
f 60/83/6 68/91/6 69/92/6 61/84/6
f 62/85/6 70/93/6 71/94/6 63/86/6
f 65/88/6 73/96/6 74/97/6 66/89/6
f 67/90/6 75/98/6 76/99/6 68/91/6
f 69/92/6 77/100/6 78/101/6 70/93/6
f 71/94/6 79/102/6 80/57/6 72/55/6
f 20/95/6 19/103/6 81/104/6 73/96/6
f 74/97/6 82/105/6 83/106/6 75/98/6
f 76/99/6 84/107/6 85/108/6 77/100/6
f 78/101/6 86/109/6 87/110/6 79/102/6
f 81/104/6 89/112/6 90/113/6 82/105/6
f 83/106/6 91/114/6 92/115/6 84/107/6
f 85/108/6 93/116/6 94/117/6 86/109/6
f 87/110/6 95/118/6 96/61/6 88/59/6
f 18/111/6 17/119/6 97/120/6 89/112/6
f 90/113/6 98/121/6 99/122/6 91/114/6
f 92/115/6 100/123/6 101/124/6 93/116/6
f 94/117/6 102/125/6 103/126/6 95/118/6
f 97/120/6 16/128/6 15/129/6 98/121/6
f 99/122/6 14/130/6 13/131/6 100/123/6
f 101/124/6 12/132/6 11/133/6 102/125/6
f 103/126/6 10/134/6 9/46/6 104/45/6
usemtl Material.002
f 104/45/6 9/46/6 2/47/6 40/48/6
f 32/30/6 48/49/6 33/50/6 6/31/6
f 56/51/6 64/53/6 35/54/6 34/52/6
f 72/55/6 80/57/6 37/58/6 36/56/6
f 88/59/6 96/61/6 39/62/6 38/60/6
f 8/21/6 24/63/6 41/64/6 25/23/6
f 26/24/6 42/65/6 43/66/6 27/25/6
f 28/26/6 44/67/6 45/68/6 29/27/6
f 30/28/6 46/69/6 47/70/6 31/29/6
f 41/64/6 49/72/6 50/73/6 42/65/6
f 43/66/6 51/74/6 52/75/6 44/67/6
f 45/68/6 53/76/6 54/77/6 46/69/6
f 47/70/6 55/78/6 56/51/6 48/49/6
f 23/71/6 22/79/6 57/80/6 49/72/6
f 50/73/6 58/81/6 59/82/6 51/74/6
f 52/75/6 60/83/6 61/84/6 53/76/6
f 54/77/6 62/85/6 63/86/6 55/78/6
f 57/80/6 65/88/6 66/89/6 58/81/6
f 59/82/6 67/90/6 68/91/6 60/83/6
f 61/84/6 69/92/6 70/93/6 62/85/6
f 63/86/6 71/94/6 72/55/6 64/53/6
f 21/87/6 20/95/6 73/96/6 65/88/6
f 66/89/6 74/97/6 75/98/6 67/90/6
f 68/91/6 76/99/6 77/100/6 69/92/6
f 70/93/6 78/101/6 79/102/6 71/94/6
f 73/96/6 81/104/6 82/105/6 74/97/6
f 75/98/6 83/106/6 84/107/6 76/99/6
f 77/100/6 85/108/6 86/109/6 78/101/6
f 79/102/6 87/110/6 88/59/6 80/57/6
f 19/103/6 18/111/6 89/112/6 81/104/6
f 82/105/6 90/113/6 91/114/6 83/106/6
f 84/107/6 92/115/6 93/116/6 85/108/6
f 86/109/6 94/117/6 95/118/6 87/110/6
f 89/112/6 97/120/6 98/121/6 90/113/6
f 91/114/6 99/122/6 100/123/6 92/115/6
f 93/116/6 101/124/6 102/125/6 94/117/6
f 95/118/6 103/126/6 104/45/6 96/61/6
f 17/119/6 4/127/6 16/128/6 97/120/6
f 98/121/6 15/129/6 14/130/6 99/122/6
f 100/123/6 13/131/6 12/132/6 101/124/6
f 102/125/6 11/133/6 10/134/6 103/126/6
