# Blender 5.0.0
# www.blender.org
mtllib fireBallC.mtl
o Sphere
v -0.065068 3.701117 0.000000
v 0.019172 3.364558 -0.151827
v 0.080840 3.176237 -0.258639
v 0.103412 3.007757 -0.297734
v 0.080840 2.839277 -0.258639
v 0.019172 2.715941 -0.151827
v -0.065068 2.670797 0.000000
v 0.103412 3.364558 0.000000
v 0.226748 3.176237 0.000000
v 0.271892 3.007757 0.000000
v 0.226748 2.839277 0.000000
v 0.103412 2.715941 0.000000
v -0.233548 3.364558 0.000000
v -0.356884 3.176237 0.000000
v -0.402028 3.007757 0.000000
v -0.356884 2.839277 0.000000
v -0.233548 2.715941 0.000000
v -0.149308 3.364558 -0.151827
v -0.210976 3.176237 -0.258639
v -0.233548 3.007757 -0.297735
v -0.210976 2.839277 -0.258639
v -0.149308 2.715941 -0.151827
v 0.086564 3.266957 -0.268553
v 0.204500 3.266957 -0.064282
v -0.149308 3.266957 -0.268553
v 0.079652 3.428957 -0.256581
v -0.402028 3.259757 -0.005919
v -0.341548 3.259757 -0.189735
v -0.371788 3.439757 -0.025827
v -0.227428 3.472558 -0.114873
v -0.065068 3.544559 -0.223827
v 0.061292 3.544559 -0.078873
v 0.019172 3.364558 0.151827
v 0.080840 3.176237 0.258639
v 0.103412 3.007757 0.297734
v 0.080840 2.839277 0.258639
v 0.019172 2.715941 0.151827
v -0.149308 3.364558 0.151827
v -0.210976 3.176237 0.258639
v -0.233548 3.007757 0.297735
v -0.210976 2.839277 0.258639
v -0.149308 2.715941 0.151827
v 0.086564 3.266957 0.268553
v 0.204500 3.266957 0.064282
v -0.149308 3.266957 0.268553
v 0.079652 3.428957 0.256581
v -0.402028 3.259757 0.005919
v -0.341548 3.259757 0.189735
v -0.371788 3.439757 0.025827
v -0.227428 3.472558 0.114873
v -0.065068 3.544559 0.223827
v 0.061292 3.544559 0.078873
vn 0.6594 -0.6546 -0.3697
vn 0.8481 0.2260 -0.4792
vn 0.8010 0.4010 -0.4445
vn 0.2562 -0.9561 -0.1421
vn 0.8481 -0.2260 -0.4792
vn 0.7587 0.4933 -0.4254
vn -0.2562 -0.9561 -0.1421
vn -0.8481 -0.2260 -0.4792
vn -0.7587 0.4933 -0.4254
vn -0.6594 -0.6546 -0.3697
vn -0.8481 0.2260 -0.4792
vn -0.8010 0.4010 -0.4445
vn -0.0000 -0.9585 -0.2850
vn -0.0000 -0.2260 -0.9741
vn -0.0000 0.4934 -0.8698
vn -0.0000 -0.6547 -0.7559
vn -0.0000 0.2260 -0.9741
vn -0.0000 0.4112 -0.9115
vn -0.0000 0.1119 -0.9937
vn 0.8636 0.1070 -0.4927
vn -0.0000 0.0737 -0.9973
vn 0.8637 0.0737 -0.4986
vn -0.8980 -0.1060 -0.4270
vn -0.9426 0.1241 -0.3101
vn -0.7924 -0.4228 -0.4397
vn -0.0000 -0.3714 -0.9285
vn 0.8744 -0.0080 -0.4852
vn 0.6594 -0.6546 0.3697
vn 0.8481 0.2260 0.4792
vn 0.8010 0.4010 0.4445
vn 0.2562 -0.9561 0.1421
vn 0.8481 -0.2260 0.4792
vn 0.7587 0.4933 0.4254
vn -0.2562 -0.9561 0.1421
vn -0.8481 -0.2260 0.4792
vn -0.7587 0.4933 0.4254
vn -0.6594 -0.6546 0.3697
vn -0.8481 0.2260 0.4792
vn -0.8010 0.4010 0.4445
vn -0.0000 -0.9585 0.2850
vn -0.0000 -0.2260 0.9741
vn -0.0000 0.4934 0.8698
vn -0.0000 -0.6547 0.7559
vn -0.0000 0.2260 0.9741
vn -0.0000 0.4112 0.9115
vn -0.0000 0.1119 0.9937
vn 0.8636 0.1070 0.4927
vn -0.0000 0.0737 0.9973
vn 0.8637 0.0737 0.4986
vn -0.8980 -0.1060 0.4270
vn -0.9426 0.1241 0.3101
vn -0.7924 -0.4228 0.4397
vn -0.0000 -0.3714 0.9285
vn 0.8744 -0.0080 0.4852
vt 0.666667 0.166667
vt 0.666667 0.333333
vt 0.500000 0.333333
vt 0.500000 0.166667
vt 0.666667 0.500000
vt 0.666667 0.666667
vt 0.500000 0.666667
vt 0.500000 0.500000
vt 0.666667 0.833333
vt 0.583333 1.000000
vt 0.500000 0.833333
vt 0.583333 0.000000
vt 0.916667 0.000000
vt 1.000000 0.166667
vt 0.833333 0.166667
vt 1.000000 0.333333
vt 1.000000 0.500000
vt 0.833333 0.500000
vt 0.833333 0.333333
vt 1.000000 0.666667
vt 1.000000 0.833333
vt 0.833333 0.833333
vt 0.833333 0.666667
vt 0.916667 1.000000
vt 0.750000 0.000000
vt 0.750000 1.000000
s 0
f 6/1/1 5/2/1 11/3/1 12/4/1
f 4/5/2 3/6/2 9/7/2 10/8/2
f 2/9/3 1/10/3 8/11/3
f 7/12/4 6/1/4 12/4/4
f 5/2/5 4/5/5 10/8/5 11/3/5
f 3/6/6 2/9/6 8/11/6 9/7/6
f 7/13/7 17/14/7 22/15/7
f 16/16/8 15/17/8 20/18/8 21/19/8
f 14/20/9 13/21/9 18/22/9 19/23/9
f 17/14/10 16/16/10 21/19/10 22/15/10
f 15/17/11 14/20/11 19/23/11 20/18/11
f 13/21/12 1/24/12 18/22/12
f 7/25/13 22/15/13 6/1/13
f 21/19/14 20/18/14 4/5/14 5/2/14
f 19/23/15 18/22/15 2/9/15 3/6/15
f 22/15/16 21/19/16 5/2/16 6/1/16
f 20/18/17 19/23/17 3/6/17 4/5/17
f 18/22/18 1/26/18 2/9/18
f 20/18/19 25/18/19 23/5/19 4/5/19
f 10/8/20 4/5/20 23/5/20 24/8/20
f 25/18/21 26/18/21 23/5/21
f 24/8/22 23/5/22 26/8/22
f 15/17/23 27/17/23 28/18/23 20/18/23
f 27/17/24 29/17/24 28/18/24
f 13/21/25 30/21/25 18/22/25
f 18/22/26 31/22/26 2/9/26
f 8/11/27 2/9/27 32/11/27
f 37/1/28 12/4/28 11/3/28 36/2/28
f 35/5/29 10/8/29 9/7/29 34/6/29
f 33/9/30 8/11/30 1/10/30
f 7/12/31 12/4/31 37/1/31
f 36/2/32 11/3/32 10/8/32 35/5/32
f 34/6/33 9/7/33 8/11/33 33/9/33
f 7/13/34 42/15/34 17/14/34
f 16/16/35 41/19/35 40/18/35 15/17/35
f 14/20/36 39/23/36 38/22/36 13/21/36
f 17/14/37 42/15/37 41/19/37 16/16/37
f 15/17/38 40/18/38 39/23/38 14/20/38
f 13/21/39 38/22/39 1/24/39
f 7/25/40 37/1/40 42/15/40
f 41/19/41 36/2/41 35/5/41 40/18/41
f 39/23/42 34/6/42 33/9/42 38/22/42
f 42/15/43 37/1/43 36/2/43 41/19/43
f 40/18/44 35/5/44 34/6/44 39/23/44
f 38/22/45 33/9/45 1/26/45
f 40/18/46 35/5/46 43/5/46 45/18/46
f 10/8/47 44/8/47 43/5/47 35/5/47
f 45/18/48 43/5/48 46/18/48
f 44/8/49 46/8/49 43/5/49
f 15/17/50 40/18/50 48/18/50 47/17/50
f 47/17/51 48/18/51 49/17/51
f 13/21/52 38/22/52 50/21/52
f 38/22/53 33/9/53 51/22/53
f 8/11/54 52/11/54 33/9/54
