# Blender 4.5.4 LTS
# www.blender.org
mtllib pawn.mtl
o Cylinder
v 0.000000 -1.000000 -1.000000
v 0.000000 -1.000000 0.000000
v 0.866025 -1.000000 -0.500000
v -0.734416 -0.900000 0.424015
v 0.866025 -1.000000 0.500000
v 0.000000 -0.900000 0.848031
v 0.000000 -1.000000 1.000000
v 0.734416 -0.900000 0.424015
v -0.866025 -1.000000 0.500000
v 0.734416 -0.900000 -0.424015
v -0.866025 -1.000000 -0.500000
v 0.000000 -0.900000 -0.848031
v -0.734416 -0.900000 -0.424015
v -0.812211 -0.800000 0.468930
v 0.000000 -0.800000 0.937861
v 0.812211 -0.800000 0.468930
v 0.812211 -0.800000 -0.468930
v 0.000000 -0.800000 -0.937861
v -0.812211 -0.800000 -0.468930
v -0.711972 -0.600000 0.411057
v 0.000000 -0.600000 0.822115
v 0.711972 -0.600000 0.411057
v 0.711972 -0.600000 -0.411057
v 0.000000 -0.600000 -0.822115
v -0.711972 -0.600000 -0.411057
v -0.711972 -0.500000 0.411057
v 0.000000 -0.500000 0.822115
v 0.711972 -0.500000 0.411057
v 0.711972 -0.500000 -0.411057
v 0.000000 -0.500000 -0.822115
v -0.711972 -0.500000 -0.411057
v -0.273276 -0.400000 0.157776
v 0.000000 -0.400000 0.315551
v 0.273276 -0.400000 0.157776
v 0.273276 -0.400000 -0.157776
v 0.000000 -0.400000 -0.315551
v -0.273276 -0.400000 -0.157776
v -0.178094 0.200000 0.102823
v 0.000000 0.200000 0.205645
v 0.178094 0.200000 0.102823
v 0.178094 0.200000 -0.102823
v 0.000000 0.200000 -0.205645
v -0.178094 0.200000 -0.102823
v -0.215931 0.700000 0.124668
v 0.000000 0.700000 0.249336
v 0.215931 0.700000 0.124668
v 0.215931 0.700000 -0.124668
v 0.000000 0.700000 -0.249336
v -0.215931 0.700000 -0.124668
v -0.381575 0.700000 0.220302
v 0.000000 0.700000 0.440605
v 0.381575 0.700000 0.220302
v 0.381575 0.700000 -0.220302
v 0.000000 0.700000 -0.440605
v -0.381575 0.700000 -0.220302
v -0.381575 0.800000 0.220302
v 0.000000 0.800000 0.440605
v 0.381575 0.800000 0.220302
v 0.381575 0.800000 -0.220302
v 0.000000 0.800000 -0.440605
v -0.381575 0.800000 -0.220302
v -0.234774 0.800000 0.135547
v 0.000000 0.800000 0.271093
v 0.234774 0.800000 0.135547
v 0.234774 0.800000 -0.135547
v 0.000000 0.800000 -0.271093
v -0.234774 0.800000 -0.135547
v -0.458338 1.100000 0.264621
v 0.000000 1.100000 0.529243
v 0.458338 1.100000 0.264621
v 0.458338 1.100000 -0.264621
v 0.000000 1.100000 -0.529243
v -0.458338 1.100000 -0.264621
v -0.190738 1.500000 0.110123
v 0.000000 1.500000 0.220246
v 0.190738 1.500000 0.110123
v 0.190738 1.500000 -0.110123
v 0.000000 1.500000 -0.220246
v -0.190738 1.500000 -0.110123
v 0.000000 1.600000 0.000000
vn -0.0000 1.0000 -0.0000
vn 0.6050 -0.7962 -0.0000
vn -0.3025 -0.7962 -0.5239
vn -0.6050 -0.7962 -0.0000
vn 0.3025 -0.7962 -0.5239
vn 0.3025 -0.7962 0.5239
vn -0.3025 -0.7962 0.5239
vn -0.3946 0.6140 -0.6835
vn 0.3946 0.6140 0.6835
vn -0.7893 0.6140 -0.0000
vn 0.3946 0.6140 -0.6835
vn 0.7893 0.6140 -0.0000
vn -0.3946 0.6140 0.6835
vn -0.8940 -0.4481 -0.0000
vn 0.4470 -0.4481 -0.7742
vn -0.4470 -0.4481 0.7742
vn -0.4470 -0.4481 -0.7742
vn 0.4470 -0.4481 0.7742
vn 0.8940 -0.4481 -0.0000
vn -0.5000 -0.0000 0.8660
vn -0.5000 -0.0000 -0.8660
vn 0.5000 -0.0000 0.8660
vn -1.0000 -0.0000 -0.0000
vn 0.5000 -0.0000 -0.8660
vn 1.0000 -0.0000 -0.0000
vn -0.2222 -0.9750 -0.0000
vn 0.1111 -0.9750 -0.1925
vn 0.2222 -0.9750 -0.0000
vn -0.1111 -0.9750 0.1925
vn -0.1111 -0.9750 -0.1925
vn 0.1111 -0.9750 0.1925
vn -0.4938 -0.1567 0.8553
vn -0.4938 -0.1567 -0.8553
vn 0.4938 -0.1567 0.8553
vn -0.9876 -0.1567 -0.0000
vn 0.4938 -0.1567 -0.8553
vn 0.9876 -0.1567 -0.0000
vn -0.9971 0.0755 -0.0000
vn 0.4986 0.0755 -0.8636
vn 0.9971 0.0755 -0.0000
vn -0.4986 0.0755 0.8636
vn -0.4986 0.0755 -0.8636
vn 0.4986 0.0755 0.8636
vn -0.0000 -1.0000 -0.0000
vn 0.8018 0.5975 -0.0000
vn -0.4009 0.5975 0.6944
vn -0.4009 0.5975 -0.6944
vn 0.4009 0.5975 0.6944
vn -0.8018 0.5975 -0.0000
vn 0.4009 0.5975 -0.6944
vn -0.8312 -0.5560 -0.0000
vn 0.4156 -0.5560 -0.7198
vn 0.8312 -0.5560 -0.0000
vn -0.4156 -0.5560 0.7198
vn -0.4156 -0.5560 -0.7198
vn 0.4156 -0.5560 0.7198
vn -0.4643 -0.8857 -0.0000
vn 0.2322 -0.8857 -0.4021
vn 0.4643 -0.8857 -0.0000
vn -0.2322 -0.8857 0.4021
vn -0.2322 -0.8857 -0.4021
vn 0.2322 -0.8857 0.4021
vt 1.000000 0.500000
vt 0.833333 1.000000
vt 0.833333 0.500000
vt 0.666667 1.000000
vt 0.666667 0.500000
vt 0.500000 1.000000
vt 0.500000 0.500000
vt 0.333333 1.000000
vt 0.333333 0.500000
vt 0.166667 0.500000
vt 0.166667 1.000000
vt -0.000000 1.000000
vt -0.000000 0.500000
s 0
f 1/1/1 2/2/1 3/3/1
f 3/3/1 2/4/1 5/5/1
f 5/5/1 2/6/1 7/7/1
f 7/7/1 2/8/1 9/9/1
f 9/9/2 11/10/2 13/10/2 4/9/2
f 9/9/1 2/11/1 11/10/1
f 11/10/1 2/12/1 1/13/1
f 5/5/3 7/7/3 6/7/3 8/5/3
f 3/3/4 5/5/4 8/5/4 10/3/4
f 7/7/5 9/9/5 4/9/5 6/7/5
f 11/10/6 1/13/6 12/13/6 13/10/6
f 1/1/7 3/3/7 10/3/7 12/1/7
f 8/5/8 6/7/8 15/7/8 16/5/8
f 13/10/9 12/13/9 18/13/9 19/10/9
f 10/3/10 8/5/10 16/5/10 17/3/10
f 6/7/11 4/9/11 14/9/11 15/7/11
f 4/9/12 13/10/12 19/10/12 14/9/12
f 12/1/13 10/3/13 17/3/13 18/1/13
f 17/3/14 16/5/14 22/5/14 23/3/14
f 15/7/15 14/9/15 20/9/15 21/7/15
f 18/1/16 17/3/16 23/3/16 24/1/16
f 16/5/17 15/7/17 21/7/17 22/5/17
f 19/10/18 18/13/18 24/13/18 25/10/18
f 14/9/19 19/10/19 25/10/19 20/9/19
f 24/1/20 23/3/20 29/3/20 30/1/20
f 22/5/21 21/7/21 27/7/21 28/5/21
f 25/10/22 24/13/22 30/13/22 31/10/22
f 23/3/23 22/5/23 28/5/23 29/3/23
f 21/7/24 20/9/24 26/9/24 27/7/24
f 20/9/25 25/10/25 31/10/25 26/9/25
f 29/3/26 28/5/26 34/5/26 35/3/26
f 27/7/27 26/9/27 32/9/27 33/7/27
f 26/9/28 31/10/28 37/10/28 32/9/28
f 30/1/29 29/3/29 35/3/29 36/1/29
f 28/5/30 27/7/30 33/7/30 34/5/30
f 31/10/31 30/13/31 36/13/31 37/10/31
f 36/1/32 35/3/32 41/3/32 42/1/32
f 34/5/33 33/7/33 39/7/33 40/5/33
f 37/10/34 36/13/34 42/13/34 43/10/34
f 35/3/35 34/5/35 40/5/35 41/3/35
f 33/7/36 32/9/36 38/9/36 39/7/36
f 32/9/37 37/10/37 43/10/37 38/9/37
f 41/3/38 40/5/38 46/5/38 47/3/38
f 39/7/39 38/9/39 44/9/39 45/7/39
f 38/9/40 43/10/40 49/10/40 44/9/40
f 42/1/41 41/3/41 47/3/41 48/1/41
f 40/5/42 39/7/42 45/7/42 46/5/42
f 43/10/43 42/13/43 48/13/43 49/10/43
f 46/5/1 45/7/1 51/7/1 52/5/1
f 49/10/1 48/13/1 54/13/1 55/10/1
f 47/3/1 46/5/1 52/5/1 53/3/1
f 45/7/1 44/9/1 50/9/1 51/7/1
f 44/9/1 49/10/1 55/10/1 50/9/1
f 48/1/1 47/3/1 53/3/1 54/1/1
f 51/7/24 50/9/24 56/9/24 57/7/24
f 50/9/25 55/10/25 61/10/25 56/9/25
f 54/1/20 53/3/20 59/3/20 60/1/20
f 52/5/21 51/7/21 57/7/21 58/5/21
f 55/10/22 54/13/22 60/13/22 61/10/22
f 53/3/23 52/5/23 58/5/23 59/3/23
f 61/10/44 60/13/44 66/13/44 67/10/44
f 59/3/44 58/5/44 64/5/44 65/3/44
f 57/7/44 56/9/44 62/9/44 63/7/44
f 56/9/44 61/10/44 67/10/44 62/9/44
f 60/1/44 59/3/44 65/3/44 66/1/44
f 58/5/44 57/7/44 63/7/44 64/5/44
f 62/9/45 67/10/45 73/10/45 68/9/45
f 66/1/46 65/3/46 71/3/46 72/1/46
f 64/5/47 63/7/47 69/7/47 70/5/47
f 67/10/48 66/13/48 72/13/48 73/10/48
f 65/3/49 64/5/49 70/5/49 71/3/49
f 63/7/50 62/9/50 68/9/50 69/7/50
f 71/3/51 70/5/51 76/5/51 77/3/51
f 69/7/52 68/9/52 74/9/52 75/7/52
f 68/9/53 73/10/53 79/10/53 74/9/53
f 72/1/54 71/3/54 77/3/54 78/1/54
f 70/5/55 69/7/55 75/7/55 76/5/55
f 73/10/56 72/13/56 78/13/56 79/10/56
f 77/3/57 76/5/57 80/3/57
f 75/7/58 74/9/58 80/7/58
f 74/9/59 79/10/59 80/9/59
f 78/1/60 77/3/60 80/1/60
f 76/5/61 75/7/61 80/5/61
f 79/10/62 78/13/62 80/10/62
