# Blender 5.0.0
# www.blender.org
mtllib pawnC.mtl
o Cylinder.006
v 1.400000 0.010000 4.000000
v 1.400000 0.010000 3.370000
v 1.945596 0.010000 3.685000
v 1.945596 0.010000 4.315000
v 1.400000 0.010000 4.630000
v 0.854404 0.010000 4.315000
v 0.854404 0.010000 3.685000
v 1.400000 0.073000 3.433000
v 1.891036 0.073000 3.716500
v 1.891036 0.073000 4.283500
v 1.400000 0.073000 4.567000
v 0.908963 0.073000 4.283500
v 0.908963 0.073000 3.716500
v 1.400000 0.136000 3.603100
v 1.743725 0.136000 3.801550
v 1.743725 0.136000 4.198450
v 1.400000 0.136000 4.396900
v 1.056274 0.136000 4.198450
v 1.056274 0.136000 3.801550
v 1.400000 0.136000 3.841240
v 1.537490 0.136000 3.920620
v 1.537490 0.136000 4.079380
v 1.400000 0.136000 4.158760
v 1.262510 0.136000 4.079380
v 1.262510 0.136000 3.920620
v 1.400000 0.199000 3.872992
v 1.509992 0.199000 3.936496
v 1.509992 0.199000 4.063504
v 1.400000 0.199000 4.127008
v 1.290008 0.199000 4.063504
v 1.290008 0.199000 3.936496
v 1.400000 0.955000 3.872992
v 1.509992 0.955000 3.936496
v 1.509992 0.955000 4.063504
v 1.400000 0.955000 4.127008
v 1.290008 0.955000 4.063504
v 1.290008 0.955000 3.936496
v 1.400000 1.018000 3.695181
v 1.663981 1.018000 3.847590
v 1.663981 1.018000 4.152410
v 1.400000 1.018000 4.304819
v 1.136019 1.018000 4.152410
v 1.136019 1.018000 3.847590
v 1.400000 1.081000 3.878072
v 1.505592 1.081000 3.939036
v 1.505592 1.081000 4.060964
v 1.400000 1.081000 4.121928
v 1.294407 1.081000 4.060964
v 1.294407 1.081000 3.939036
v 1.400000 1.144000 3.817108
v 1.558389 1.144000 3.908554
v 1.558389 1.144000 4.091446
v 1.400000 1.144000 4.182891
v 1.241611 1.144000 4.091446
v 1.241611 1.144000 3.908554
v 1.400000 1.270000 3.707374
v 1.653422 1.270000 3.853687
v 1.653422 1.270000 4.146313
v 1.400000 1.270000 4.292626
v 1.146578 1.270000 4.146313
v 1.146578 1.270000 3.853687
v 1.400000 1.396000 3.853687
v 1.526711 1.396000 3.926843
v 1.526711 1.396000 4.073157
v 1.400000 1.396000 4.146313
v 1.273289 1.396000 4.073157
v 1.273289 1.396000 3.926843
v 1.400000 1.459000 3.970737
v 1.425342 1.459000 3.985369
v 1.425342 1.459000 4.014631
v 1.400000 1.459000 4.029263
v 1.374658 1.459000 4.014631
v 1.374658 1.459000 3.985369
v 1.400000 1.459000 4.000000
vn -0.0000 -1.0000 -0.0000
vn -0.3780 0.6547 -0.6547
vn -0.3780 0.6547 0.6547
vn 0.7559 0.6547 -0.0000
vn 0.3780 0.6547 -0.6547
vn -0.7559 0.6547 -0.0000
vn 0.3780 0.6547 0.6547
vn 0.1966 0.9194 -0.3405
vn -0.1966 0.9194 -0.3405
vn -0.1966 0.9194 0.3405
vn 0.3932 0.9194 -0.0000
vn -0.3932 0.9194 -0.0000
vn 0.1966 0.9194 0.3405
vn -0.0000 1.0000 -0.0000
vn -0.4583 0.4000 -0.7937
vn -0.4583 0.4000 0.7937
vn 0.9165 0.4000 -0.0000
vn -0.9165 0.4000 -0.0000
vn 0.4583 0.4000 0.7937
vn 0.4583 0.4000 -0.7937
vn -1.0000 -0.0000 -0.0000
vn 0.5000 -0.0000 0.8660
vn 0.5000 -0.0000 -0.8660
vn -0.5000 -0.0000 -0.8660
vn -0.5000 -0.0000 0.8660
vn 1.0000 -0.0000 -0.0000
vn -0.1893 -0.9255 -0.3279
vn -0.1893 -0.9255 0.3279
vn 0.3787 -0.9255 -0.0000
vn -0.3787 -0.9255 -0.0000
vn 0.1893 -0.9255 0.3279
vn 0.1893 -0.9255 -0.3279
vn -0.3696 0.9292 -0.0000
vn 0.1848 0.9292 0.3201
vn 0.1848 0.9292 -0.3201
vn -0.1848 0.9292 -0.3201
vn -0.1848 0.9292 0.3201
vn 0.3696 0.9292 -0.0000
vn -0.3832 -0.6423 -0.6638
vn -0.3832 -0.6423 0.6638
vn 0.7664 -0.6423 -0.0000
vn -0.7664 -0.6423 -0.0000
vn 0.3832 -0.6423 0.6638
vn 0.3832 -0.6423 -0.6638
vn -0.7984 -0.6022 -0.0000
vn 0.3992 -0.6022 0.6914
vn 0.3992 -0.6022 -0.6914
vn -0.3992 -0.6022 -0.6914
vn -0.3992 -0.6022 0.6914
vn 0.7984 -0.6022 -0.0000
vn -0.3526 0.7091 -0.6106
vn -0.3526 0.7091 0.6106
vn 0.7051 0.7091 -0.0000
vn -0.7051 0.7091 -0.0000
vn 0.3526 0.7091 0.6106
vn 0.3526 0.7091 -0.6106
vn -0.5279 0.8493 -0.0000
vn 0.2639 0.8493 0.4571
vn 0.2639 0.8493 -0.4571
vn -0.2639 0.8493 -0.4571
vn -0.2639 0.8493 0.4571
vn 0.5279 0.8493 -0.0000
vt 1.000000 0.500000
vt 1.000000 1.000000
vt 0.833333 1.000000
vt 0.833333 0.500000
vt 0.666667 1.000000
vt 0.666667 0.500000
vt 0.500000 1.000000
vt 0.500000 0.500000
vt 0.333333 1.000000
vt 0.333333 0.500000
vt 0.166667 1.000000
vt 0.166667 0.500000
vt -0.000000 1.000000
s 0
f 1/1/1 2/2/1 3/3/1
f 1/4/1 3/3/1 4/5/1
f 1/6/1 4/5/1 5/7/1
f 1/8/1 5/7/1 6/9/1
f 1/10/1 6/9/1 7/11/1
f 1/12/1 7/11/1 2/13/1
f 2/13/2 7/11/2 13/11/2 8/13/2
f 6/9/3 5/7/3 11/7/3 12/9/3
f 4/5/4 3/3/4 9/3/4 10/5/4
f 3/3/5 2/2/5 8/2/5 9/3/5
f 7/11/6 6/9/6 12/9/6 13/11/6
f 5/7/7 4/5/7 10/5/7 11/7/7
f 9/3/8 8/2/8 14/2/8 15/3/8
f 8/13/9 13/11/9 19/11/9 14/13/9
f 12/9/10 11/7/10 17/7/10 18/9/10
f 10/5/11 9/3/11 15/3/11 16/5/11
f 13/11/12 12/9/12 18/9/12 19/11/12
f 11/7/13 10/5/13 16/5/13 17/7/13
f 19/11/14 18/9/14 24/9/14 25/11/14
f 17/7/14 16/5/14 22/5/14 23/7/14
f 15/3/14 14/2/14 20/2/14 21/3/14
f 14/13/14 19/11/14 25/11/14 20/13/14
f 18/9/14 17/7/14 23/7/14 24/9/14
f 16/5/14 15/3/14 21/3/14 22/5/14
f 20/13/15 25/11/15 31/11/15 26/13/15
f 24/9/16 23/7/16 29/7/16 30/9/16
f 22/5/17 21/3/17 27/3/17 28/5/17
f 25/11/18 24/9/18 30/9/18 31/11/18
f 23/7/19 22/5/19 28/5/19 29/7/19
f 21/3/20 20/2/20 26/2/20 27/3/20
f 31/11/21 30/9/21 36/9/21 37/11/21
f 29/7/22 28/5/22 34/5/22 35/7/22
f 27/3/23 26/2/23 32/2/23 33/3/23
f 26/13/24 31/11/24 37/11/24 32/13/24
f 30/9/25 29/7/25 35/7/25 36/9/25
f 28/5/26 27/3/26 33/3/26 34/5/26
f 32/13/27 37/11/27 43/11/27 38/13/27
f 36/9/28 35/7/28 41/7/28 42/9/28
f 34/5/29 33/3/29 39/3/29 40/5/29
f 37/11/30 36/9/30 42/9/30 43/11/30
f 35/7/31 34/5/31 40/5/31 41/7/31
f 33/3/32 32/2/32 38/2/32 39/3/32
f 43/11/33 42/9/33 48/9/33 49/11/33
f 41/7/34 40/5/34 46/5/34 47/7/34
f 39/3/35 38/2/35 44/2/35 45/3/35
f 38/13/36 43/11/36 49/11/36 44/13/36
f 42/9/37 41/7/37 47/7/37 48/9/37
f 40/5/38 39/3/38 45/3/38 46/5/38
f 44/13/39 49/11/39 55/11/39 50/13/39
f 48/9/40 47/7/40 53/7/40 54/9/40
f 46/5/41 45/3/41 51/3/41 52/5/41
f 49/11/42 48/9/42 54/9/42 55/11/42
f 47/7/43 46/5/43 52/5/43 53/7/43
f 45/3/44 44/2/44 50/2/44 51/3/44
f 55/11/45 54/9/45 60/9/45 61/11/45
f 53/7/46 52/5/46 58/5/46 59/7/46
f 51/3/47 50/2/47 56/2/47 57/3/47
f 50/13/48 55/11/48 61/11/48 56/13/48
f 54/9/49 53/7/49 59/7/49 60/9/49
f 52/5/50 51/3/50 57/3/50 58/5/50
f 56/13/51 61/11/51 67/11/51 62/13/51
f 60/9/52 59/7/52 65/7/52 66/9/52
f 58/5/53 57/3/53 63/3/53 64/5/53
f 61/11/54 60/9/54 66/9/54 67/11/54
f 59/7/55 58/5/55 64/5/55 65/7/55
f 57/3/56 56/2/56 62/2/56 63/3/56
f 67/11/57 66/9/57 72/9/57 73/11/57
f 65/7/58 64/5/58 70/5/58 71/7/58
f 63/3/59 62/2/59 68/2/59 69/3/59
f 62/13/60 67/11/60 73/11/60 68/13/60
f 66/9/61 65/7/61 71/7/61 72/9/61
f 64/5/62 63/3/62 69/3/62 70/5/62
f 68/13/14 73/11/14 74/13/14
f 72/9/14 71/7/14 74/9/14
f 70/5/14 69/3/14 74/5/14
f 73/11/14 72/9/14 74/11/14
f 71/7/14 70/5/14 74/7/14
f 69/3/14 68/2/14 74/3/14
