# Blender 5.0.0
# www.blender.org
mtllib platform.mtl
o Cylinder
v 0.056000 0.005800 0.042000
v 0.056000 0.005800 -0.399000
v 0.437917 0.005800 -0.178500
v 0.437917 0.005800 0.262500
v 0.056000 0.005800 0.483000
v -0.325917 0.005800 0.262500
v -0.325917 0.005800 -0.178500
v 0.056000 0.075800 -0.310800
v 0.361534 0.075800 -0.134400
v 0.361534 0.075800 0.218400
v 0.056000 0.075800 0.394800
v -0.249534 0.075800 0.218400
v -0.249534 0.075800 -0.134400
v 0.056000 0.509800 -0.310800
v 0.361534 0.509800 -0.134400
v 0.361534 0.509800 0.218400
v 0.056000 0.509800 0.394800
v -0.249534 0.509800 0.218400
v -0.249534 0.509800 -0.134400
v 0.056000 0.579800 -0.240240
v 0.300427 0.579800 -0.099120
v 0.300427 0.579800 0.183120
v 0.056000 0.579800 0.324240
v -0.188427 0.579800 0.183120
v -0.188427 0.579800 -0.099120
v 0.056000 0.789800 -0.409584
v 0.447083 0.789800 -0.183792
v 0.447083 0.789800 0.267792
v 0.056000 0.789800 0.493584
v -0.335083 0.789800 0.267792
v -0.335083 0.789800 -0.183792
v 0.056000 0.859800 -0.454742
v 0.486192 0.859800 -0.206371
v 0.486192 0.859800 0.290371
v 0.056000 0.859800 0.538742
v -0.374192 0.859800 0.290371
v -0.374192 0.859800 -0.206371
v 0.056000 0.873800 -0.355394
v 0.400153 0.873800 -0.156697
v 0.400153 0.873800 0.240697
v 0.056000 0.873800 0.439394
v -0.288153 0.873800 0.240697
v -0.288153 0.873800 -0.156697
v 0.056000 0.873800 -0.196436
v 0.262492 0.873800 -0.077218
v 0.262492 0.873800 0.161218
v 0.056000 0.873800 0.280436
v -0.150492 0.873800 0.161218
v -0.150492 0.873800 -0.077218
v 0.056000 0.733800 -0.101062
v 0.179895 0.733800 -0.029531
v 0.179895 0.733800 0.113531
v 0.056000 0.733800 0.185062
v -0.067895 0.733800 0.113531
v -0.067895 0.733800 -0.029531
v 0.056000 0.733800 0.042000
vn -0.0000 -1.0000 -0.0000
vn -0.3378 0.7372 -0.5851
vn -0.3378 0.7372 0.5851
vn 0.6756 0.7372 -0.0000
vn 0.3378 0.7372 -0.5851
vn -0.6756 0.7372 -0.0000
vn 0.3378 0.7372 0.5851
vn -0.5000 -0.0000 -0.8660
vn -0.5000 -0.0000 0.8660
vn 1.0000 -0.0000 -0.0000
vn -1.0000 -0.0000 -0.0000
vn 0.5000 -0.0000 0.8660
vn 0.5000 -0.0000 -0.8660
vn -0.7533 0.6576 -0.0000
vn 0.3767 0.6576 0.6524
vn 0.3767 0.6576 -0.6524
vn -0.3767 0.6576 -0.6524
vn -0.3767 0.6576 0.6524
vn 0.7533 0.6576 -0.0000
vn -0.4099 -0.5726 0.7100
vn 0.8199 -0.5726 -0.0000
vn -0.8199 -0.5726 -0.0000
vn 0.4099 -0.5726 0.7100
vn 0.4099 -0.5726 -0.7100
vn -0.4099 -0.5726 -0.7100
vn 0.4365 -0.4877 0.7560
vn 0.4365 -0.4877 -0.7560
vn -0.4365 -0.4877 -0.7560
vn -0.4365 -0.4877 0.7560
vn 0.8730 -0.4877 -0.0000
vn -0.8730 -0.4877 -0.0000
vn 0.1606 0.9870 -0.0000
vn -0.1606 0.9870 -0.0000
vn 0.0803 0.9870 0.1391
vn 0.0803 0.9870 -0.1391
vn -0.0803 0.9870 -0.1391
vn -0.0803 0.9870 0.1391
vn -0.0000 1.0000 -0.0000
vn -0.4306 0.5081 0.7459
vn 0.4306 0.5081 0.7459
vn 0.4306 0.5081 -0.7459
vn -0.8613 0.5081 -0.0000
vn 0.8613 0.5081 -0.0000
vn -0.4306 0.5081 -0.7459
vt 1.000000 0.500000
vt 1.000000 1.000000
vt 0.833333 1.000000
vt 0.833333 0.500000
vt 0.666667 1.000000
vt 0.666667 0.500000
vt 0.500000 1.000000
vt 0.500000 0.500000
vt 0.333333 1.000000
vt 0.333333 0.500000
vt 0.166667 1.000000
vt 0.166667 0.500000
vt -0.000000 1.000000
s 0
f 1/1/1 2/2/1 3/3/1
f 1/4/1 3/3/1 4/5/1
f 1/6/1 4/5/1 5/7/1
f 1/8/1 5/7/1 6/9/1
f 1/10/1 6/9/1 7/11/1
f 1/12/1 7/11/1 2/13/1
f 2/13/2 7/11/2 13/11/2 8/13/2
f 6/9/3 5/7/3 11/7/3 12/9/3
f 4/5/4 3/3/4 9/3/4 10/5/4
f 3/3/5 2/2/5 8/2/5 9/3/5
f 7/11/6 6/9/6 12/9/6 13/11/6
f 5/7/7 4/5/7 10/5/7 11/7/7
f 8/13/8 13/11/8 19/11/8 14/13/8
f 12/9/9 11/7/9 17/7/9 18/9/9
f 10/5/10 9/3/10 15/3/10 16/5/10
f 13/11/11 12/9/11 18/9/11 19/11/11
f 11/7/12 10/5/12 16/5/12 17/7/12
f 9/3/13 8/2/13 14/2/13 15/3/13
f 19/11/14 18/9/14 24/9/14 25/11/14
f 17/7/15 16/5/15 22/5/15 23/7/15
f 15/3/16 14/2/16 20/2/16 21/3/16
f 14/13/17 19/11/17 25/11/17 20/13/17
f 18/9/18 17/7/18 23/7/18 24/9/18
f 16/5/19 15/3/19 21/3/19 22/5/19
f 24/9/20 23/7/20 29/7/20 30/9/20
f 22/5/21 21/3/21 27/3/21 28/5/21
f 25/11/22 24/9/22 30/9/22 31/11/22
f 23/7/23 22/5/23 28/5/23 29/7/23
f 21/3/24 20/2/24 26/2/24 27/3/24
f 20/13/25 25/11/25 31/11/25 26/13/25
f 29/7/26 28/5/26 34/5/26 35/7/26
f 27/3/27 26/2/27 32/2/27 33/3/27
f 26/13/28 31/11/28 37/11/28 32/13/28
f 30/9/29 29/7/29 35/7/29 36/9/29
f 28/5/30 27/3/30 33/3/30 34/5/30
f 31/11/31 30/9/31 36/9/31 37/11/31
f 34/5/32 33/3/32 39/3/32 40/5/32
f 37/11/33 36/9/33 42/9/33 43/11/33
f 35/7/34 34/5/34 40/5/34 41/7/34
f 33/3/35 32/2/35 38/2/35 39/3/35
f 32/13/36 37/11/36 43/11/36 38/13/36
f 36/9/37 35/7/37 41/7/37 42/9/37
f 39/3/38 38/2/38 44/2/38 45/3/38
f 38/13/38 43/11/38 49/11/38 44/13/38
f 42/9/38 41/7/38 47/7/38 48/9/38
f 40/5/38 39/3/38 45/3/38 46/5/38
f 43/11/38 42/9/38 48/9/38 49/11/38
f 41/7/38 40/5/38 46/5/38 47/7/38
f 45/3/39 44/2/39 50/2/39 51/3/39
f 44/13/40 49/11/40 55/11/40 50/13/40
f 48/9/41 47/7/41 53/7/41 54/9/41
f 46/5/42 45/3/42 51/3/42 52/5/42
f 49/11/43 48/9/43 54/9/43 55/11/43
f 47/7/44 46/5/44 52/5/44 53/7/44
f 55/11/38 54/9/38 56/11/38
f 53/7/38 52/5/38 56/7/38
f 51/3/38 50/2/38 56/3/38
f 50/13/38 55/11/38 56/13/38
f 54/9/38 53/7/38 56/9/38
f 52/5/38 51/3/38 56/5/38
